inDegrees=yes
name=IK_Results.mot
DataType=double
version=3
OpenSimVersion=4.4-2022-08-12-dcf8e2cb1
endheader
time	TH_x	TH_y	TH_z	TH_transx	TH_transy	TH_transz	SC_y	SC_z	SC_x	AC_y	AC_z	AC_x	GH_y	GH_z	GH_yy	EL_x	PS_y
9.179999999999849	17.62536125591968	-113.5971950171716	3.635734022191457	0	0	0	-52.35346413572686	24.73597588212595	14.80537249611173	51.2646707803878	10.22377305710244	-10.82753133782073	54.88473177645789	-19.25392724596545	-40.12286474915619	5.381633887001935	89.96675483717819
9.189999999999849	19.007364484482	-114.9345986281641	5.184310553783984	0	0	0	-51.73658895637206	22.28705448166702	15.20668127857132	51.04152941727001	8.699154452356309	-8.644572450215618	54.31880459081195	-18.11060542105794	-39.63342017743919	2.079285625504678	90.22420072147203
9.199999999999848	17.64342567679548	-115.3002244184835	3.513375674569937	0	0	0	-50.39635629466383	22.55897674505516	14.91513160278523	51.81551652076242	6.844515776609825	-8.941273911891585	54.02381254020789	-17.37578377744172	-36.83907249532264	1.230072169032569	90.32730010694478
9.209999999999848	18.05092192984269	-114.6723855027483	3.936468638258592	0	0	0	-50.09672216467926	21.65459327566693	15.24160324663636	51.67126166404758	6.288866484822139	-8.056111747552325	53.68322359144337	-16.69989078638662	-36.57195876451798	1.065670039645384	90.5262272943957
9.219999999999848	17.34474413099831	-115.3600826577702	2.882711336381263	0	0	0	-50.47901475238179	20.1959163180229	15.95787119379242	50.49278049890766	5.672781020205191	-6.732138757462362	51.61922734847407	-15.6576524783791	-37.60607283159528	1.041840180265316	90.64411858852188
9.229999999999848	16.34963204157011	-113.7672773469319	1.791590195406536	0	0	0	-50.50813000196065	19.40107215494631	16.06100409881333	50.03374382613754	4.813280491388545	-6.123905304679191	50.68102863828383	-15.13743795489283	-37.5678498302666	1.18456322812713	90.36036883092164
9.239999999999847	14.92610730685603	-112.8882862649187	1.360126970864599	0	0	0	-49.77944093248722	18.73569361365057	16.3133360422251	50.06643207915918	3.276843764264664	-5.190187611951267	49.39124222510058	-13.83345350989596	-36.61802232312558	7.565378250170604	89.80906065393602
9.249999999999847	13.89128957082364	-112.8490280812665	0.4986000859711565	0	0	0	-49.47215938724377	18.05062437100979	17.59597809035455	49.56437476562111	3.28689786528527	-3.852951261300361	48.02527398489307	-12.10744470949743	-36.93758448664521	7.971165853959744	89.77240868196699
9.259999999999847	9.885429026167188	-111.6055090516269	-1.651449998382071	0	0	0	-49.89318142658124	18.23464704328762	17.24936961325327	49.07985724530211	2.568009579861413	-4.216498755455846	46.34434120787573	-11.9838962058867	-37.52687786485038	11.9810094773114	89.48424273869391
9.269999999999847	13.11516295092686	-111.5896497608601	1.162170040209442	0	0	0	-49.50046178906612	16.90624701970766	17.33815652413428	48.92336919467093	1.339252576509574	-3.031199198746059	45.75683631330298	-11.50887880222546	-37.23298971446856	14.06313553874925	89.33149757356543
9.279999999999847	14.39172920514184	-112.007487578781	2.089293155987759	0	0	0	-49.20579147540328	16.07676669164946	17.56580471888407	48.6712807807617	0.336396132086475	-2.144157068721228	44.41855478488841	-10.70522425984105	-37.13332234352281	16.9033572303361	89.12162188089324
9.289999999999846	14.6571397022305	-112.3839291840964	2.069918334953997	0	0	0	-48.73316422073057	15.60156491430225	17.44548811122936	48.81843818744647	-0.7211043916598625	-1.637483192190495	43.86583038095527	-10.36717134730326	-36.61030370705965	19.9735005824033	88.91202404309615
9.299999999999846	16.5264404712239	-113.1516152813161	4.419844081230467	0	0	0	-48.13330534225354	13.69552428088289	17.52990872971387	48.75533181586204	-2.083217854023319	-0.006949432182272773	43.82107793961475	-10.18143440496015	-36.28268533623951	17.19824012623721	89.10543831511781
9.309999999999846	16.58843031867896	-112.5632623601809	3.211432125915876	0	0	0	-47.24573835299462	13.3422246895603	18.21115085242193	49.1780407639688	-2.292706716384011	0.9798449300007216	44.18173720127931	-9.281904262313883	-35.45738305320727	15.63252194636636	89.22038193575314
9.319999999999846	14.57200051613511	-108.6156574727605	2.260388207241005	0	0	0	-46.46883286253193	13.87976505812182	17.70836450116974	49.90176141508699	-3.016094657898968	0.5630018353024543	45.1002591578981	-9.468465000757504	-33.93114429439621	18.10372785369283	89.04167799821697
9.329999999999846	13.68759485708966	-107.6636443240398	0.8704713753756537	0	0	0	-46.15484240384028	13.52583676588445	17.52651843244842	50.01553340869363	-3.667046333504134	0.8809863356788302	45.15654004237831	-9.495800482275667	-33.52494982888393	16.88709679272696	89.10943670584003
9.339999999999845	15.77412117018308	-103.7674416100508	2.212013032650779	0	0	0	-46.43872853180667	14.08864712333842	17.48531444361045	49.61680637814067	-3.842530187158811	0.5565805474187935	44.59352055962709	-9.140984656868964	-33.330736071687	19.8497799236027	88.92592176465153
9.349999999999845	15.46413251971636	-102.942220654204	2.359642307955909	0	0	0	-45.96174390000533	13.09377134743771	17.64626324872538	49.71922506919513	-4.499850771804176	1.498615012104886	44.79171196183623	-8.858366353578054	-32.8415949236729	15.68610349919512	89.20896847141262
9.359999999999845	12.73085265459755	-102.3805239341196	-1.157368718689693	0	0	0	-46.20009897390668	12.18091114285597	17.69319937638697	49.01538666255617	-5.379138703623287	2.459420380665085	43.75798258040385	-8.573133172754455	-33.39260182342584	12.65047555935901	89.43375160512537
9.369999999999845	15.53409023919529	-102.306655610396	2.040284668735469	0	0	0	-46.32914741245636	11.24557427418467	17.75368986520332	48.43983069962235	-6.245300444208945	3.425386370358894	43.01138567701028	-8.339315797874587	-33.73504154935501	10.54188439484657	89.56448484055343
9.379999999999844	17.39759634877235	-101.9469927953113	3.752980631656095	0	0	0	-46.16128203195594	11.66621201322826	17.77418384715835	48.47145883742414	-6.489035551671339	3.411255619225916	42.75934740166204	-8.074437918957143	-33.45573998918049	12.57750017314922	89.44264178744437
